<!-- Generator: Adobe Illustrator 23.0.0, SVG Export Plug-In  -->
<svg version="1.1" xmlns="http://www.w3.org/2000/svg" xmlns:xlink="http://www.w3.org/1999/xlink" x="0px" y="0px"
     width="125.07px" height="128.19px" viewBox="0 0 125.07 128.19" style="enable-background:new 0 0 125.07 128.19;"
     xml:space="preserve">
<style type="text/css">
	.st0{fill:#040000;}
	.st1{fill:#FFFFFF;}
</style>
    <defs>
</defs>
    <path class="st0" d="M125.07,127.09c-1.56,1.17-3.38,1.01-5.18,1.01c-38.45-0.01-76.91-0.08-115.36,0.09
	c-3.85,0.02-4.54-1.06-4.53-4.67C0.14,83.9,0.14,44.29,0,4.67C-0.01,1.06,0.67-0.02,4.53,0c38.45,0.17,76.91,0.11,115.36,0.09
	c1.8,0,3.62-0.17,5.18,1.01C125.07,43.1,125.07,85.09,125.07,127.09z"/>
    <path class="st1" d="M39.93,32.74c2.09,2.55,5.49,3.73,5.09,7.38c-0.32,2.86,1.06,4.55,2.91,6.35c6.3,6.16,12.62,12.31,18.65,18.73
	c2.62,2.79,6.66,3.39,8.86,6.71c7.94,11.97,19.4,20.68,29.05,31.07c1.72,1.85,3.48,3.7,5.43,5.31c2.38,1.97,1.76,3.59-0.01,5.52
	c-2.18,2.37-3.6,1.05-5.29-0.65c-9.3-9.38-18.79-18.57-27.88-28.15c-1.51-1.59-3.11-2.67-4.86-3.5c-5.24-2.48-6.93-8.02-10.63-11.8
	c-6.43-6.56-12.85-13.15-19.39-19.6c-3.1-3.06-5.33-11.6-3.65-15.38C38.52,34.06,39.2,33.57,39.93,32.74z"/>
    <path class="st1" d="M27.41,46.1c-11.48,0-18.32-6.91-18.32-18.49c0-4.87-0.94-9.82,4.16-13.39c2.44-1.7,3.68-0.36,4.99,0.68
	c1.7,1.37,0.89,2.77-0.64,4.06c-2.18,1.83-4.2,11.36-2.27,13.59c2.64,3.04,4.77,7.42,10.2,6.61c2.45-0.36,4.99-0.05,7.49-0.06
	c2.41-0.01,3.91,1.45,3.93,3.54c0.03,2.26-1.19,3.92-4.06,3.51C31.1,45.89,29.24,46.1,27.41,46.1z"/>
    <path class="st1" d="M22.42,21.1c8.25,0,12.37,4.2,12.76,11.14c0.31,5.55-2.53,6.08-6.92,5.92c-6.99-0.25-10.76-4.46-11.31-11.73
	C16.53,20.94,19.11,20.45,22.42,21.1z"/>
    <path class="st1" d="M13.78,54.28c-3.55,10.5,0.59,21.5-4.13,31.53c-1.77-0.64-1.56-2.12-1.56-3.53c0-12.33-0.01-24.65,0.03-36.98
	c0-1.03-0.67-2.42,0.74-3.06c1.26-0.58,2.18,0.24,3.02,1.09c3.63,3.66,7.29,7.3,10.89,11c0.43,0.44,1.62,0.74,0.72,1.84
	c-0.73,0.9-1.29,0.28-2.05,0.06C18.84,55.47,16.18,54.88,13.78,54.28z"/>
    <path class="st1" d="M71.06,11.73c-10.73,2.94-22.12,1.22-33.06,3.6c0.9,2.78,1.6,5.25,2.53,7.62c0.32,0.82,0.83,1.48-0.04,2.1
	c-0.77,0.55-1.66,0.29-2.26-0.31c-3.84-3.8-7.78-7.52-11.39-11.54c-1.72-1.91-0.16-3.05,1.81-3.06c14.09-0.06,28.17-0.03,42.26-0.03
	C70.96,10.65,71.01,11.19,71.06,11.73z"/>
</svg>
