<!-- Generator: Adobe Illustrator 23.0.0, SVG Export Plug-In  -->
<svg version="1.1" xmlns="http://www.w3.org/2000/svg" xmlns:xlink="http://www.w3.org/1999/xlink" x="0px" y="0px"
     width="125.08px" height="127.17px" viewBox="0 0 125.08 127.17" style="enable-background:new 0 0 125.08 127.17;"
     xml:space="preserve">
<style type="text/css">
	.st0{fill:#040000;}
	.st1{fill:#FFFFFF;}
</style>
    <defs>
</defs>
    <path class="st0" d="M125.08,127.08c-39.82,0-79.63-0.07-119.45,0.09c-4.39,0.02-5.65-1.19-5.63-5.61C0.16,82.91,0.16,44.26,0,5.61
	C-0.02,1.19,1.24-0.02,5.63,0c39.82,0.16,79.63,0.09,119.45,0.09C125.08,42.42,125.08,84.75,125.08,127.08z"/>
    <path class="st1" d="M71.09,37.59c0,5.83,0.37,11.69-0.13,17.48c-0.34,4.02,1.36,6.19,4.53,7.65c11.28,5.23,21.26,12.73,32.33,18.33
	c0.42,0.21,1.08,0.28,1.26,0.61c2.94,5.39-2.93,7.82-4.18,11.83c-0.66,2.12-2.96,2.15-5.02,0.89C93.28,90.38,86.66,86.41,80,82.52
	c-4.42-2.58-9.01-4.88-13.35-7.57c-2.52-1.56-4.82-1.09-6.86,0.28C49.11,82.42,37.19,87.5,26.6,94.84
	c-1.98,1.37-4.32,2.54-5.78-1.24c-0.9-2.35-2.92-4.24-4.15-6.5c-1.33-2.44-0.95-4.42,1.82-5.95C30,74.79,41.35,68.13,52.92,61.91
	c2.93-1.58,3.23-3.52,3.21-6.33c-0.11-12.16,0.08-24.32-0.13-36.47c-0.05-3.26,0.82-4.12,4.08-4.09
	c10.99,0.1,10.99-0.04,10.99,11.09C71.09,29.93,71.09,33.76,71.09,37.59z"/>
    <path class="st1" d="M71.09,99.75c0,4.16-0.1,8.33,0.04,12.49c0.09,2.74-0.88,3.93-3.74,3.88c-13.83-0.26-11.03,1.71-11.27-10.77
	C56,99.68,56.06,94.02,56.1,88.35c0.02-3.04,4.56-7.17,7.64-7.05c3.09,0.13,7.3,4.07,7.34,6.95C71.12,92.09,71.09,95.92,71.09,99.75
	z"/>
    <path class="st1" d="M49.27,52.52c1.24,3.44-2.41,4.65-4.93,6.53c-2.65,1.97-4.65,0.31-6.96-1.07c-5.9-3.54-11.99-6.77-17.99-10.14
	c-2.39-1.34-5.45-2.26-1.5-5.7c1.07-0.93,1.92-3.31,2.5-5.02c1.75-5.18,4.67-3.86,7.9-1.99c6.28,3.64,12.44,7.49,18.84,10.91
	C49.84,47.47,48.8,49.6,49.27,52.52z"/>
    <path class="st1" d="M78.21,51.71c-0.84-3.57,0.78-5.2,3.9-6.74c5.75-2.84,11.14-6.4,16.67-9.68c2.7-1.6,5.2-2.33,6.25,1.71
	c0.39,1.48,2.15,1.95,2.13,3.77c-0.03,2.02,3.36,3.13,2.27,5.27c-1.09,2.15-3.69,2.98-5.81,4.14c-4.64,2.55-9.32,5.04-13.82,7.83
	c-2.29,1.42-4.35,2.97-6.95,1.04C80.36,57.18,76.66,56.02,78.21,51.71z"/>
    <path class="st1" d="M104.22,64.26c-1.57-1.05-3-1.9-4.32-2.89c-2.43-1.81-2.19-3.4-0.11-5.64c2.34-2.53,3.55-1.12,5.04,0.6
	c0.22,0.25,0.46,0.48,0.7,0.71c8.65,8.62,8.57,8.53-0.41,16.66c-2.46,2.23-4.71,1.57-6.56,0.07c-2.49-2.03-0.07-3.52,1.3-4.96
	C100.99,67.63,102.12,66.45,104.22,64.26z"/>
    <path class="st1" d="M29.6,57.83c-1.37,1.47-2.21,2.74-3.38,3.55c-3.78,2.62-3.37,4.97,0.1,7.46c3.34,2.39,2.62,4.31-0.61,6.29
	c-1.11,0.68-1.61,0.48-2.4-0.03c-0.67-0.43-1.43-0.77-1.97-1.34c-2.66-2.78-7.62-5.87-7.35-8.37c0.49-4.44,6.4-6.41,9.19-10.25
	c0.34-0.47,1.36-1.57,2.54-0.83C27.19,55.24,27.39,57.29,29.6,57.83z"/>
    <path class="st1" d="M34.09,26.94c0-7.85,0-7.85,7.65-7.85c1.5,0,3,0.06,4.49-0.01c2.25-0.11,4.15-0.36,3.97,3.13
	c-0.16,3.15-1.41,4.35-4.26,3.85c-4.44-0.79-5.47,1.28-4.88,5.18c0.48,3.18-1.32,3.8-4.15,3.95c-3.28,0.17-2.87-1.75-2.83-3.75
	C34.12,29.94,34.09,28.44,34.09,26.94z"/>
    <path class="st1" d="M42.06,111.08c-7.96,0-7.96,0-7.96-8.04c0-1.5,0.07-3-0.02-4.5c-0.13-2.21-0.03-3.79,3.04-3.55
	c2.57,0.2,4.47,0.69,3.93,3.64c-1.01,5.57,1.25,7.48,6.6,6.46c2.57-0.49,2.44,1.25,2.48,3.03c0.05,1.9-0.11,3.24-2.58,2.99
	C45.73,110.93,43.89,111.08,42.06,111.08z"/>
    <path class="st1" d="M93.08,27.3c0,1.67-0.17,3.35,0.04,4.99c0.35,2.74-1.15,2.82-3.24,2.86c-2.12,0.04-3.2-0.53-2.79-2.77
	c0.94-5.08-0.94-7.24-6.21-6.33c-2.71,0.47-3.89-0.85-3.86-3.69c0.03-2.77,1.4-3.43,3.77-3.28c1.33,0.08,2.66,0.01,4,0.01
	C93.08,19.09,93.08,19.09,93.08,27.3z"/>
    <path class="st1" d="M93.08,103.19c0,7.89,0,7.89-8.02,7.89c-1.82,0-3.64-0.03-5.46,0c-2.86,0.05-2.37-2.01-2.54-3.8
	c-0.23-2.35,1.22-2.14,2.79-2.22c6.84-0.35,6.94-0.38,7.18-7.2c0.07-2.08,0.48-2.99,2.75-2.83c1.9,0.13,3.68-0.18,3.35,2.7
	C92.91,99.53,93.08,101.37,93.08,103.19z"/>
</svg>
