<!-- Generator: Adobe Illustrator 23.0.0, SVG Export Plug-In  -->
<svg version="1.1" xmlns="http://www.w3.org/2000/svg" xmlns:xlink="http://www.w3.org/1999/xlink" x="0px" y="0px"
     width="129.37px" height="128.13px" viewBox="0 0 129.37 128.13" style="enable-background:new 0 0 129.37 128.13;"
     xml:space="preserve">
<style type="text/css">
	.st0{fill:#040000;}
	.st1{fill:#FFFFFF;}
</style>
    <defs>
</defs>
    <path class="st0" d="M129.27,0.06c0,41.08-0.06,82.16,0.1,123.25c0.01,3.92-0.99,4.85-4.86,4.83c-41.41-0.15-82.82-0.09-124.22-0.09
	c0-0.33,0-0.67,0-1c0.97-1.71,0.49-3.58,0.49-5.37C0.81,83.11,0.79,44.54,0.84,5.98c0-2.03-0.92-4.42,1.45-5.92
	C44.62,0.06,86.95,0.06,129.27,0.06z"/>
    <path class="st1" d="M2.29,0.06C0.92,1.77,1.3,3.79,1.3,5.74C1.29,44.53,1.31,83.32,1.22,122.11c0,1.61,1.16,3.64-0.93,4.93
	c0-41.17-0.01-82.34,0.07-123.51C0.37,2.32-1.24-0.43,2.29,0.06z"/>
    <path class="st1" d="M13.37,97.02c-1.85-0.49-1.17-1.79-0.61-2.96c2.95-6.13,7.19-10.93,13.43-14.03
	c10.78-5.36,21.44-10.96,32.11-16.52c12.61-6.56,25.21-13.14,37.75-19.82c4.96-2.64,9.71-5.67,14.65-8.36
	c1.32-0.72,3.08-2.34,4.43-0.89c1.1,1.19-0.87,2.45-1.28,3.7c-2.97,9.08-11.43,11.94-18.57,15.71
	c-10.75,5.68-21.56,11.28-32.31,16.97C50.63,77.35,38.19,83.7,25.83,90.19c-3.42,1.8-6.72,3.82-10.08,5.72
	C15.05,96.31,14.29,96.6,13.37,97.02z"/>
    <path class="st1" d="M64.77,115.69c-0.57-9.4-2.01-18.73-1.41-28.93c-4.66,2.4-8.83,4.58-13.03,6.68c-0.99,0.49-2.01,2-3.21,0.7
	c-1.23-1.33,0.81-1.77,1.1-2.75c3.1-10.21,12.71-12.71,20.55-17.4c5.82-3.48,13.1-4.75,17.16-11.01c1.03-1.58,2.73-0.75,4.14-0.92
	c3.15-0.38,5.66-2.25,8.3-3.72c1.15-0.64,2.19-2,3.41-1c1.48,1.21-0.81,2.14-0.81,3.4c0,0.49-0.8,1-0.37,2.1
	c5.59,0.68,11.58-0.66,17.28,1.58c-2.76,2.72-6.17,1.53-9.26,1.56c-5.41,0.05-10.08,0.35-14.99,4.2
	c-6.46,5.06-14.52,8.09-21.9,11.96c-2.09,1.1-3.46,2.2-3.57,5.12c-0.38,9.51-1.31,18.99-2.02,28.49
	C65.68,115.73,65.23,115.71,64.77,115.69z"/>
    <path class="st1" d="M28.24,66.35c-5-1.07-9.96,0.98-14.98-1.79c2.34-0.91,4.74-1.29,6.27-1.14c12.09,1.21,20.39-7.15,30.13-11.66
	c2.64-1.22,5.47-3.17,8.05-4.13c5-1.86,6.06-4.81,5.58-9.36c-0.75-7.13,1.13-14.14,0.98-21.24c-0.03-1.32,0.37-2.25,1.57-2.6
	c1.93,8.96,0.74,18.24,2.74,27.47c3.7-1.97,7.35-3.91,11.03-5.86c0.83,4.28-4.99,12.83-9.56,15.07c-7.65,3.75-16,6.61-22.45,12.13
	c-5.89,5.05-13.96,4.82-19.58,9.81c-0.46,0.4-1.07,1.34-1.98,0.27c-0.78-0.92-0.99-1.6-0.02-2.51
	C27.2,69.69,27.96,68.29,28.24,66.35z"/>
</svg>
