<!-- Generator: Adobe Illustrator 23.0.0, SVG Export Plug-In  -->
<svg version="1.1" xmlns="http://www.w3.org/2000/svg" xmlns:xlink="http://www.w3.org/1999/xlink" x="0px" y="0px"
     width="125.17px" height="127.15px" viewBox="0 0 125.17 127.15" style="enable-background:new 0 0 125.17 127.15;"
     xml:space="preserve">
<style type="text/css">
	.st0{fill:#040000;}
	.st1{fill:#FFFFFF;}
</style>
    <defs>
</defs>
    <path class="st0" d="M125.09,126.07c-1.53,1.34-3.4,0.99-5.18,0.99C81.97,127.07,44.04,127,6.1,127.15
	c-4.75,0.02-6.12-1.48-6.1-6.26C0.19,80.62,0.11,40.35,0.11,0.08C40.6,0.08,81.1,0.12,121.59,0c2.98-0.01,3.59,0.6,3.58,3.58
	C125.05,44.41,125.09,85.24,125.09,126.07z"/>
    <path class="st1" d="M38.45,79.54c6.13-4.24,9.34-8.74,8.82-16.07c-0.69-9.61-0.2-19.31-0.14-28.97c0.01-1.73-0.65-3.53,1.33-5.55
	c-2.18,0.54-3.36,0.89-4.56,1.11c-1.37,0.25-2.3-0.58-2.71-1.7c-0.44-1.2,0.07-2.33,1.2-2.99c4.58-2.65,8.97-5.8,13.85-7.71
	c3.79-1.49,8.06,0.73,11.58,2.03c5.33,1.96,11.03,2.07,16.23,4.32c2.89,1.25,6.36,1.01,8.55,3.99c2.11,2.87,4.92-2.16,7.24,1.01
	c-1.84,2.86-2.01,5.92,1.9,8.21c2.14,1.25,1.04,3.61,1.53,5.44c2.14,7.91,4.25,15.83,6.15,23.81c0.78,3.3,0.33,5.55-1.33,8.14
	c-1.91,2.97-3.44,6.18-5.34,9.15c-0.75,1.17-1.68,2.52-3.54,2.31c-1.58-0.18-1.92-2.2-1.85-2.48c0.86-3.42-1.55-2.51-3.16-2.51
	c-10.83-0.02-21.69,0.56-32.46-0.22c-6.79-0.49-9.62,4.05-14.38,7.6c2.84,0.83,5.07-1.8,7.02,0.37c1.31,1.46,0.63,3.18,0.69,4.77
	c0.13,3.11-1.65,4.96-4.59,4.38c-12.05-2.39-20.26,3.4-27.05,12.3c-2.81,3.69-5.04,3.1-7.84-0.1c-1.88-2.15-1.9-3.6,0.21-5.34
	c0.89-0.74,1.66-1.63,2.48-2.46C29.1,91.58,29.3,91.59,29.98,76.58c0.21-4.53,2.67-4.52,5.76-4.51c4.31,0.02,2.51,2.9,2.38,5.04
	C38.09,77.72,38.28,78.34,38.45,79.54z"/>
    <path class="st1" d="M80.28,15.27c2.36-1.54,3.88-2.62,5.78-2.17c7.69,1.83,15.5,0.78,23.24,0.89c2.59,0.04,3.44,1.35,3.15,3.22
	c-1.32,8.45,0.88,16.77,0.61,25.16c-0.03,0.97,0.7,2.53-1.21,2.65c-1.69,0.11-1.61-1.16-1.78-2.36c-0.95-6.9-2.05-13.79-2.93-20.7
	c-0.19-1.52-0.75-1.69-2.1-1.96c-6.67-1.32-13.26-3.1-20.16-3.01C83.6,17.02,82.31,16.07,80.28,15.27z"/>
    <path class="st1" d="M87.32,84.5c-5.32,3.45-9.93,2.41-14.33,2.56c-3.31,0.11-6.62,0.09-9.92-0.02c-1.08-0.04-2.93,0.88-2.93-1.41
	c0-1.86,1.26-2.92,2.91-2.48C70.6,85.15,78.36,83.34,87.32,84.5z"/>
    <path class="st1" d="M41.1,41.16c3.29,1.79,1.46,4.5,2.14,6.53c1.93,5.81,0.38,11.81,0.85,17.71c0.11,1.35-0.64,2.44-1.8,2.52
	c-1.55,0.11-2.29-1.14-2.17-2.64c0.28-3.58,0.8-7.14,0.94-10.72C41.23,50.27,41.1,45.95,41.1,41.16z"/>
    <path class="st0" d="M74.09,78.07c-7.48,0-14.96,0.02-22.45-0.03c-0.86,0-2.5,0.47-2.33-0.88c0.3-2.36,1.54-0.39,2.41-0.2
	c2.44,0.52,4.33-0.14,6.14-2.04c5.04-5.3,10.21-10.47,15.48-15.54c5.95-5.73,12.32-10.83,20.36-13.56c3.46-1.18,4.91-1.08,5.54,3.12
	c0.85,5.69,2.55,11.27,4.18,16.81c2.07,7.04-1.62,12.31-8.88,12.32C87.72,78.08,80.9,78.07,74.09,78.07z"/>
    <path class="st0" d="M50.1,74.73c0-3.26,0-6.53,0-9.79c0-10.81-0.01-21.61,0-32.42c0.01-6.71,3.88-9.93,10.31-8.42
	c6.72,1.58,13.36,3.47,20.11,4.9c1.83,0.39,2.35,2.19,2.22,2.57c-1.08,3.15-2.04,6.52-3.94,9.18c-6.94,9.67-15.59,17.83-24.03,26.16
	C52.56,69.09,49.66,70.95,50.1,74.73z"/>
</svg>
