<!-- Generator: Adobe Illustrator 23.0.0, SVG Export Plug-In  -->
<svg version="1.1" xmlns="http://www.w3.org/2000/svg" xmlns:xlink="http://www.w3.org/1999/xlink" x="0px" y="0px"
     width="128.11px" height="128.03px" viewBox="0 0 128.11 128.03" style="enable-background:new 0 0 128.11 128.03;"
     xml:space="preserve">
<style type="text/css">
	.st0{fill:#040000;}
	.st1{fill:#FFFFFF;}
</style>
    <defs>
</defs>
    <path class="st0" d="M0,0.02c40.96,0,81.93,0.01,122.89-0.02c2.94,0,4.17-0.26,4.39,4.18c1.73,34.94,0.13,69.89,0.67,104.82
	c0.09,5.73-0.29,11.46-0.37,17.19c-0.02,1.28-0.82,1.64-1.7,1.75c-1.31,0.16-2.66,0.07-3.99,0.07c-40.63,0-81.26,0-121.89,0
	C0,85.35,0,42.68,0,0.02z"/>
    <path class="st1" d="M62.39,12.12c1.14,0.73,1.82,1.6,1.59,2.91c-0.89,5.22,1.72,9.39,3.94,13.76
	c8.38,16.47,16.57,33.04,24.93,49.52c1.58,3.11-1.22,3.51-2.5,3.55c-7.48,0.25-14.99,0.24-22.47,0c-1.79-0.06-3.32-0.9-2.04-3.84
	c2.38-5.48,5.27-9.23,13.06-6.18c-5.83-11.61-10.93-21.76-16.3-32.44c-3.68,7.22-7,13.74-10.51,20.63c3.35,0,6.43-0.17,9.49,0.05
	c2.76,0.2,3.76,1.3,2.42,4.4c-2.08,4.78-4.62,7.56-10.47,6.68c-4.56-0.69-9.31-0.2-13.97-0.12c-2.68,0.05-3.18-0.76-1.94-3.21
	c4.61-9.1,9.09-18.26,13.59-27.41c4.15-8.43,10.68-15.96,9.92-26.27C61.08,13.5,61.96,12.79,62.39,12.12z"/>
    <path class="st1" d="M90.81,95.89c-0.63-1.3-1.26-2.27-1.58-3.33c-0.68-2.24-0.33-3.16,2.58-3.72c6.82-1.31,8.57,3.52,10.24,7.89
	c1.85,4.86,4.7,8.3,9.41,10.37c0.81,0.36,1.95,1.26,1.37,2.33c-0.5,0.94-1.77,0.83-2.62,0.2c-6.51-4.88-14.06-3.59-21.35-3.61
	c-19.98-0.06-39.96,0.02-59.94-0.05c-4.3-0.02-8.49-0.18-12,3c-1.24,1.13-2.88,1.45-5.42,0.42c11.4-6.24,13.55-18.35,19.42-28.01
	c1.75-2.87,6.91-4.69,9.7-3.17c1.75,0.96,1.24,2.13,0.45,3.64c-2.38,4.53-4.55,9.18-6.91,14.02C53.09,95.89,71.68,95.89,90.81,95.89
	z"/>
</svg>
