<!-- Generator: Adobe Illustrator 23.0.0, SVG Export Plug-In  -->
<svg version="1.1" xmlns="http://www.w3.org/2000/svg" xmlns:xlink="http://www.w3.org/1999/xlink" x="0px" y="0px"
     width="125.18px" height="127.17px" viewBox="0 0 125.18 127.17" style="enable-background:new 0 0 125.18 127.17;"
     xml:space="preserve">
<style type="text/css">
	.st0{fill:#040000;}
	.st1{fill:#FFFFFF;}
</style>
    <defs>
</defs>
    <path class="st0" d="M0.11,127.09C0.11,86.43,0.18,45.77,0,5.12C-0.02,0.96,0.96-0.02,5.11,0C45.11,0.18,85.1,0.11,125.09,0.11
	c0,41.16-0.04,82.32,0.08,123.48c0.01,2.98-0.6,3.59-3.58,3.58C81.1,127.05,40.6,127.09,0.11,127.09z"/>
    <path class="st1" d="M61.1,74.36c0,10.48-0.13,20.74,0.07,31c0.07,3.47-1.37,4.73-4.51,4.73c-12,0.01-23.99-0.08-35.99,0.05
	c-3.97,0.04-3.57-2.48-3.57-5.03c0.01-24.82,0.01-49.65,0.01-74.47c0-3.33,0.08-6.67-0.03-10c-0.08-2.56,0.98-3.57,3.55-3.56
	c12,0.07,23.99,0.08,35.99-0.01c3.06-0.02,3.55,1.57,3.52,4.1c-0.09,6.66,0.3,13.35-0.13,19.99c-0.34,5.28,1.16,9.16,6.1,11.94
	c0-10.45,0.18-20.73-0.09-31c-0.1-4.04,1.23-5.15,5.16-5.07c10.99,0.24,21.99,0.19,32.99,0.02c3.53-0.06,5.04,0.75,5.02,4.68
	c-0.15,27.99-0.13,55.98-0.01,83.97c0.02,3.65-1.37,4.51-4.72,4.46c-10.99-0.16-21.99-0.16-32.99-0.01
	c-4.62,0.06-5.42-2.39-5.43-6.29c-0.01-4.45,3.08-4.37,5.79-4.12c7.99,0.73,15.98,0.05,23.96,0.4c2.5,0.11,3.4-0.49,3.39-3.23
	c-0.12-22.16-0.1-44.32-0.02-66.48c0.01-2.5-0.5-3.51-3.25-3.39c-5.32,0.23-10.66,0.15-15.99,0.02c-2.09-0.05-2.92,0.43-2.89,2.72
	c0.03,2.19,1.05,2.48,2.75,2.32c0.33-0.03,0.67-0.01,1,0C94.1,32.36,94.1,32.36,94.1,45.44c0,12.33,0.03,24.66-0.05,36.99
	c-0.01,1.17,0.88,2.82-0.76,3.52c-1.75,0.75-2.62-0.79-3.67-1.84C76.54,71.03,63.48,57.95,50.34,44.94
	c-1.66-1.64-2.43-3.28-2.29-5.64c0.2-3.32-0.07-6.67,0.09-9.99c0.11-2.32-1.22-2.18-2.82-2.25c-1.79-0.08-2.3,0.62-2.25,2.31
	c0.1,3.33-0.08,6.67,0.06,9.99c0.12,2.84-1.1,4.01-3.85,3.73c-0.16-0.02-0.33-0.01-0.5,0C26.1,43.46,26.1,43.46,26.1,55.97
	c0,13,0.12,25.99-0.08,38.99c-0.06,3.82,0.86,5.7,4.99,5.18c1.97-0.25,3.99-0.09,5.99-0.03c2.11,0.07,3.01-1.02,3.08-3
	c0.08-2.08-0.97-3.28-3-2.97c-4.67,0.7-5.1-1.87-5.05-5.6c0.16-11.49,0.23-23-0.03-34.49c-0.09-4.08,1.43-4.67,5.16-5.15
	c5.97-0.76,9.04,2.91,12.47,6.31c11.41,11.3,22.76,22.67,34.1,34.04c1.12,1.12,2.77,2.03,2.34,4.07c-0.13,0.64,0.35,1.55-1.2,1.24
	c-5.09-1.04-10.26-0.34-15.4-0.42c-2.66-0.04-3.54-1.24-3.41-3.7c0.09-1.83-0.22-3.7,0.06-5.49C66.88,80.37,65.4,76.94,61.1,74.36z"
    />
    <path class="st0" d="M37.95,32.34c1.35,5.26-1.58,5.71-6,5.92c-5.14,0.24-5.71-1.86-6.04-6.32c-0.52-7.02,4.18-4.34,7.34-4.85
	C37.45,26.42,39.07,28.09,37.95,32.34z"/>
</svg>
