<!-- Generator: Adobe Illustrator 23.0.0, SVG Export Plug-In  -->
<svg version="1.1" xmlns="http://www.w3.org/2000/svg" xmlns:xlink="http://www.w3.org/1999/xlink" x="0px" y="0px"
     width="128.19px" height="128.17px" viewBox="0 0 128.19 128.17" style="enable-background:new 0 0 128.19 128.17;"
     xml:space="preserve">
<style type="text/css">
	.st0{fill:#040000;}
	.st1{fill:#FFFFFF;}
	.st2{fill:#070505;}
</style>
    <defs>
</defs>
    <path class="st0" d="M64.01,128.08c-19.82,0-39.65-0.07-59.47,0.07c-3.2,0.02-4.56-0.34-4.54-4.14C0.16,84.03,0.14,44.05,0.02,4.07
	C0.01,0.76,0.93,0.02,4.13,0.03C43.95,0.14,83.76,0.16,123.57,0c3.85-0.02,4.6,1.09,4.59,4.72c-0.14,39.65-0.15,79.29,0.02,118.94
	c0.02,3.92-1.15,4.53-4.7,4.5C103.66,127.99,83.84,128.08,64.01,128.08z"/>
    <path class="st1" d="M29.28,73.84c-0.73-11.5-1.12-23.05-2.38-34.49c-0.42-3.8,1.22-5.19,3.77-5.97c2.04-0.62,3.83-1.66,5.79-2.37
	c2.43-0.88,4.37-2.3,3.66-5.46c-0.45-2,0.62-2.85,2.48-2.43c7.68,1.74,13.59-2.25,19.1-6.43c3-2.28,5.28-1.81,7.39,0.16
	c5.08,4.72,10.76,7.21,17.78,6.27c1.67-0.22,3.39,0.49,3.11,2.28c-0.78,5.04,2.92,5.58,6.16,6.72c7.37,2.6,7.35,2.6,6,10.77
	c-0.16,0.97-0.11,2-0.04,2.99c0.92,12.77-1.78,25.34-1.97,38.04c-0.03,1.77-0.98,2.53-2.21,3.5c-9.74,7.73-19.35,15.62-29.15,23.28
	c-2,1.56-3.94,2.51-6.92-0.08c-9.56-8.31-19.61-16.09-29.69-23.78c-2.41-1.84-3.2-3.75-3.09-6.49c0.09-2.16,0.02-4.33,0.02-6.49
	C29.15,73.85,29.21,73.84,29.28,73.84z"/>
    <path class="st1" d="M18.37,13.29c6.86,3.04,10.05,8.47,15.32,11.14c0.94,0.48,0.85,2.78-0.45,4c-1.12,1.06-3.19,1.15-3.62,0.37
	C26.78,23.58,21.3,20.29,18.37,13.29z"/>
    <path class="st1" d="M34.09,96.85c-0.08,0.23-0.1,0.86-0.41,1.12c-4.14,3.4-8.3,6.77-12.54,10.03c-0.26,0.2-1.35,1.33-1.88,0.09
	c-0.21-0.49-0.09-1.4,0.25-1.83c3.28-4.05,6.62-8.05,9.98-12.03c0.6-0.71,1.33-1.75,2.42-0.75C32.84,94.34,34.17,95,34.09,96.85z"/>
    <path class="st1" d="M111.8,14.35c-2.71,5.17-7.03,8.95-9.82,13.91c-0.9,1.6-2.63,1.07-3.85,0.29c-1.51-0.96-1.64-3.39-0.73-3.92
	C102.52,21.66,106.02,16.47,111.8,14.35z"/>
    <path class="st1" d="M112.36,107.36c-2.82,1.81-3.75-0.56-5.17-1.66c-2.82-2.17-5.67-4.3-8.47-6.49c-1.05-0.83-2.23-1.92-1.53-3.32
	c0.55-1.09,1.64-2.27,2.74-2.63c1.17-0.38,1.6,1.16,2.31,2.05C105.49,99.38,108.93,103.31,112.36,107.36z"/>
    <path class="st1" d="M83.09,32.36c0.35,0.25,0.69,0.5,1.04,0.75c1.74,3.12,1.1,6.49,0.92,9.77c-0.49,9.21-1.01,18.42-1.92,27.6
	c1.03-8.72,1.2-17.51,1.96-26.25c0.22-2.51-0.8-5.75,3.36-5.96c3.06-0.16,6.38,2.98,6.59,6.27c0.15,2.32,0.35,4.71-0.05,6.98
	c-1.31,7.45-0.96,14.94-0.84,22.42c0.06,4.02-1.3,7.13-4.2,9.7c-6.74,5.96-14.2,11.02-21.15,16.72c-2.18,1.79-4.49,1.6-6.88-0.04
	c-7.84-5.39-14.8-11.88-22.29-17.7c-1.66-1.29-2.38-3.01-2.55-5.18c-0.84-10.94-1.62-21.89-1.59-32.87
	c0.01-3.45,3.48-6.54,6.93-6.23c2.26,0.2,3.22,1.56,3.14,3.7c-0.27,6.83,1.37,13.68,0.8,20.39c-0.7,8.28,2.37,13.69,9.14,17.63
	c2.63,3.01,6.74,3.97,9.44,6.89c-2.62-2.7-6.33-3.88-8.99-6.55c-0.95-0.97-2.12-1.6-3.21-2.36c-4.33-3.05-6.39-6.84-6.33-12.57
	c0.09-9.09-0.47-18.23-1.53-27.31c-0.59-5.02,1.17-7.38,6.09-7.41c3.42-0.02,6-1.48,8.7-3.17c3.48-2.18,5.26-1.25,5.36,2.88
	c0.16,7.16,0.04,14.32,0.06,21.48c0.01-6.88-0.03-13.76,0.03-20.64c0.01-1.78-0.37-3.81,1.81-4.75c1.8-0.78,3.25,0.13,4.54,1.25
	c2.49,2.16,5.24,3.41,8.63,3.14C81.27,30.83,82.41,31.2,83.09,32.36z"/>
    <path class="st0" d="M83.09,32.36c-4.97-0.31-10.1,0.14-13.54-4.92c-0.64-0.95-3.59-1.26-3.48,1.96c0.3,8.63-0.57,17.3,0.49,25.9
	c0.18,1.49,0.01,2.44-1.2,2.6c-2.04,0.26-1.23-1.55-1.23-2.46c-0.07-8.16-0.01-16.32-0.08-24.49c-0.01-1.22,0.76-2.82-0.61-3.64
	c-1.41-0.85-2.42,0.39-3.4,1.28c-3.18,2.89-6.84,4.26-11.17,3.5c-2.74-0.48-2.72,1.16-2.83,3.22c-0.62,11.28,1.47,22.46,1.14,33.75
	c-0.12,4.22,3.67,6.46,6.49,8.81c1.22,1.02,2.63,1.78,3.5,3.2c-0.36,0.44-0.74,0.46-1.14,0.05c-2.53-1.76-4.78-4.04-7.32-5.57
	c-2.38-1.44-2.7-2.9-2.62-5.13c0.33-9.26-1.74-18.43-1-27.71c0.16-2.03-0.52-4.27-2.79-3.42c-2.24,0.84-6.48,0.93-5.76,4.58
	c0.66,3.33,0.61,6.57,0.48,9.79c-0.33,8.12,1.67,16.1,1.13,24.22c-0.28,4.21,4.07,4.78,6.32,6.79c5.92,5.29,12.53,9.79,18.51,15.01
	c1.94,1.69,3.33,1.21,4.61,0.18c7.64-6.08,15.17-12.32,22.72-18.51c1.75-1.43,2.79-3.21,2.8-5.57c0.02-10.08-0.41-20.18,1.03-30.19
	c0.62-4.33-2.75-5.11-5.36-6.39c-1.38-0.68-2.71-0.18-2.74,2.1c-0.11,7.91-1.45,15.77-0.98,23.72c0.22,3.65-0.91,7.01-2.76,10.12
	c0.19-14.11,2.52-27.99,1.83-42.03c1.39,2.05,3.55,3.26,5.72,3.86c5,1.38,7.7,2.66,6.62,9.47c-1.38,8.69-2.35,17.77-1.29,26.69
	c0.76,6.43-1.53,10.58-6.75,14.36C81.34,92.62,74,97.55,67.83,103.87c-1.67,1.71-2.87,1.34-4.61-0.06
	c-8.38-6.69-16.87-13.25-25.4-19.75c-1.18-0.9-1.64-1.75-1.77-3.19c-1-11.15-2.58-22.27-1.98-33.52c0.06-1.12,0.06-2.21-0.47-3.37
	c-1.41-3.07,0.11-4.6,2.94-6c3.54-1.75,9.19-1.49,8.66-7.94c-0.11-1.41,1.57-1.09,2.35-0.91c5.67,1.34,10.14-1.14,14.31-4.42
	c2.44-1.92,3.94-2.21,6.91,0.04c3.53,2.67,7.56,6.12,12.97,4.37c1.39-0.45,2.78,0.22,3.21,1.61C85.4,32.15,84.01,32.14,83.09,32.36z
	"/>
    <path class="st2" d="M56.02,81.11c0.38-0.02,0.76-0.03,1.14-0.05c3.15,1.85,6.3,3.7,10.45,6.13C62.02,86.87,59.28,83.48,56.02,81.11
	z"/>
    <path class="st0" d="M73.57,80.87c0.49-1.83,1.99-1.87,3.56-2.62C76.77,80.83,74.74,80.28,73.57,80.87z"/>
</svg>
