<!-- Generator: Adobe Illustrator 23.0.0, SVG Export Plug-In  -->
<svg version="1.1" xmlns="http://www.w3.org/2000/svg" xmlns:xlink="http://www.w3.org/1999/xlink" x="0px" y="0px"
     width="127.14px" height="126.14px" viewBox="0 0 127.14 126.14" style="enable-background:new 0 0 127.14 126.14;"
     xml:space="preserve">
<style type="text/css">
	.st0{fill:#040000;}
	.st1{fill:#FFFFFF;}
</style>
    <defs>
</defs>
    <path class="st0" d="M63.57,0.08c19.83,0,39.65,0.08,59.48-0.08c3.26-0.03,4.1,0.82,4.09,4.08c-0.12,38.99-0.13,77.97,0.01,116.96
	c0.01,3.98-1.15,5.11-5.12,5.1c-39.32-0.13-78.64-0.12-117.96,0c-3.29,0.01-4.07-0.88-4.06-4.1C0.12,82.72,0.12,43.4,0,4.08
	C-0.01,0.8,0.85-0.02,4.09,0C23.92,0.16,43.75,0.08,63.57,0.08z"/>
    <path class="st1" d="M34.24,39.28c0.33-0.94-0.97-2.24,0.91-3.23c3.32-1.75,6.89-3.59,9.71-0.42
	c10.76,12.06,22.65,22.99,34.04,34.39c5.79,5.8,11.38,12.15,18.75,16.37c2.29,1.31,3.79,3.67,4.93,6.45
	c1.98,4.85,4.98,9.27,7.35,13.97c0.3,0.59,1.59,1.37,0.49,2.53c-0.92,0.96-1.51,0.12-2.07-0.22c-8.18-4.83-18.93-5.8-23.67-15.83
	c-0.54-1.13-1.82-1.91-2.75-2.85c-15.05-15.06-30.1-30.11-45.16-45.16C35.12,43.63,33.06,42.22,34.24,39.28z"/>
    <path class="st1" d="M24.07,37.49c2.73-7.94-4.84-11.51-9.62-16.35c-2.83-2.86-2.78-4.53,0.1-7.21c2.44-2.28,4.25-2.5,6.02,0.19
	c5.34,8.09,12.65,11.46,22.29,10.02c2.31-0.35,5.13-0.83,5.28,3.26c0.12,3.36-0.25,4.91-4.4,4.8c-11.54-0.31-11.66-0.06-11.6,11.81
	c0.02,3.16-0.66,4.25-4.03,4.18c-3.17-0.06-4.56-0.73-4.09-4.09C24.28,42.31,24.07,40.45,24.07,37.49z"/>
    <path class="st1" d="M115.06,50.22c0,4.9,0,9.81,0,14.71c0,12.15,0.01,24.3-0.03,36.46c0,0.86,0.59,2.17-0.77,2.5
	c-1.16,0.28-1.83-0.72-2.13-1.65c-3.31-10.36-7.82-20.24-12.07-30.22c-0.5-1.16-1.89-2.61-0.63-3.53c1.72-1.25,2.43,1.04,3.39,1.9
	c2.3,2.07,4.4,4.37,6.52,6.51c3.48-8.82,1.68-18.16,3.97-26.84C113.89,50.11,114.48,50.16,115.06,50.22z"/>
    <path class="st1" d="M50.39,112.8c9.05-1.2,17.93-3.7,28.48-2.45c-3.23-5.17-8.78-6.95-11.08-11.94c3.54-0.75,5.61,1.79,8.15,2.71
	c9.15,3.33,18.18,6.97,27.22,10.6c0.65,0.26,2.33,0.08,1.78,1.7c-0.3,0.87-1.04,0.96-1.99,0.96c-17.43-0.05-34.86-0.04-52.28-0.04
	C50.57,113.82,50.48,113.31,50.39,112.8z"/>
</svg>
